<svg width="18" height="12" viewBox="0 0 18 12" fill="none" xmlns="http://www.w3.org/2000/svg">
<path d="M17.9497 5.59709C17.9242 5.53948 17.3066 4.16938 15.9335 2.79636C14.1041 0.966876 11.7933 0 9.25 0C6.70666 0 4.39593 0.966876 2.56645 2.79636C1.19343 4.16938 0.57291 5.54167 0.550306 5.59709C0.517138 5.67169 0.5 5.75242 0.5 5.83407C0.5 5.91571 0.517138 5.99644 0.550306 6.07105C0.575826 6.12865 1.19343 7.49803 2.56645 8.87105C4.39593 10.6998 6.70666 11.6667 9.25 11.6667C11.7933 11.6667 14.1041 10.6998 15.9335 8.87105C17.3066 7.49803 17.9242 6.12865 17.9497 6.07105C17.9829 5.99644 18 5.91571 18 5.83407C18 5.75242 17.9829 5.67169 17.9497 5.59709ZM9.25 10.5C7.00562 10.5 5.04489 9.68407 3.42177 8.07553C2.75578 7.41322 2.18917 6.65799 1.73958 5.83334C2.18905 5.00861 2.75567 4.25336 3.42177 3.59115C5.04489 1.98261 7.00562 1.16667 9.25 1.16667C11.4944 1.16667 13.4551 1.98261 15.0782 3.59115C15.7455 4.2532 16.3134 5.00844 16.7641 5.83334C16.2383 6.8148 13.948 10.5 9.25 10.5ZM9.25 2.33334C8.55777 2.33334 7.88108 2.53861 7.3055 2.92319C6.72993 3.30778 6.28133 3.8544 6.01642 4.49395C5.75151 5.13349 5.6822 5.83722 5.81725 6.51616C5.9523 7.19509 6.28564 7.81873 6.77512 8.30822C7.26461 8.7977 7.88825 9.13104 8.56718 9.26609C9.24612 9.40114 9.94985 9.33183 10.5894 9.06692C11.2289 8.80201 11.7756 8.35341 12.1601 7.77784C12.5447 7.20226 12.75 6.52557 12.75 5.83334C12.749 4.90538 12.38 4.0157 11.7238 3.35953C11.0676 2.70336 10.178 2.3343 9.25 2.33334ZM9.25 8.16667C8.78851 8.16667 8.33738 8.02983 7.95367 7.77344C7.56995 7.51705 7.27088 7.15263 7.09428 6.72627C6.91767 6.29991 6.87147 5.83075 6.9615 5.37813C7.05153 4.9255 7.27376 4.50974 7.60008 4.18342C7.9264 3.8571 8.34217 3.63487 8.79479 3.54484C9.24741 3.45481 9.71657 3.50101 10.1429 3.67762C10.5693 3.85422 10.9337 4.15329 11.1901 4.53701C11.4465 4.92072 11.5833 5.37185 11.5833 5.83334C11.5833 6.45218 11.3375 7.04567 10.8999 7.48326C10.4623 7.92084 9.86884 8.16667 9.25 8.16667Z" fill="white"/>
</svg>
