<svg width="25" height="24" viewBox="0 0 25 24" fill="none" xmlns="http://www.w3.org/2000/svg">
<path d="M21.6367 13.2398C21.3707 13.2398 21.0926 13.1555 20.8267 13.0953C20.288 12.9771 19.7587 12.8201 19.2428 12.6256C18.6819 12.4223 18.0654 12.4329 17.5119 12.6552C16.9583 12.8776 16.5069 13.296 16.2444 13.8299L15.9785 14.3719C14.8009 13.7193 13.7188 12.9089 12.7624 11.9632C11.8131 11.0106 10.9995 9.93273 10.3444 8.75972L10.8522 8.42251C11.3882 8.16107 11.8083 7.7114 12.0315 7.16001C12.2547 6.60862 12.2653 5.99449 12.0612 5.43579C11.8692 4.92085 11.7117 4.39381 11.5897 3.85813C11.5292 3.59318 11.4809 3.31618 11.4446 3.03919C11.2978 2.19089 10.8517 1.42267 10.1868 0.872897C9.52179 0.32312 8.68161 0.0279069 7.81752 0.0404212H4.19044C3.66938 0.0355479 3.15339 0.142564 2.67759 0.354184C2.20179 0.565804 1.77735 0.87706 1.43316 1.26676C1.08898 1.65646 0.833128 2.11546 0.683031 2.61251C0.532934 3.10956 0.492115 3.63299 0.563352 4.14716C1.20745 9.19254 3.52067 13.8804 7.13762 17.4702C10.7546 21.06 15.4691 23.3471 20.5365 23.9703H20.9959C21.8875 23.9716 22.7483 23.6458 23.414 23.055C23.7965 22.7143 24.102 22.2965 24.3104 21.8294C24.5188 21.3623 24.6254 20.8565 24.623 20.3453V16.7323C24.6082 15.8958 24.3024 15.0903 23.7578 14.4534C23.2131 13.8164 22.4635 13.3875 21.6367 13.2398ZM22.2412 20.4657C22.241 20.6367 22.2042 20.8057 22.1334 20.9615C22.0625 21.1172 21.9591 21.2561 21.8302 21.369C21.6955 21.4858 21.5375 21.573 21.3667 21.6249C21.1959 21.6768 21.016 21.6922 20.8388 21.6701C16.3108 21.0918 12.105 19.0284 8.88475 15.8054C5.66448 12.5824 3.61302 8.38318 3.05395 3.87017C3.03471 3.69376 3.05157 3.51529 3.10352 3.34556C3.15547 3.17582 3.24143 3.01834 3.35621 2.88262C3.4695 2.75416 3.60897 2.6512 3.76532 2.5806C3.92166 2.51 4.09131 2.47337 4.26298 2.47315H7.89006C8.17122 2.46692 8.44576 2.55852 8.66643 2.73217C8.8871 2.90582 9.0401 3.15067 9.09909 3.42457C9.14745 3.75375 9.2079 4.07892 9.28044 4.40007C9.42011 5.03492 9.60598 5.65881 9.8366 6.26677L8.14396 7.04958C7.99923 7.11573 7.86905 7.20969 7.76089 7.32609C7.65272 7.44249 7.5687 7.57902 7.51366 7.72785C7.45861 7.87668 7.43362 8.03488 7.44012 8.19336C7.44662 8.35183 7.48448 8.50747 7.55153 8.65133C9.29157 12.364 12.2876 15.3483 16.0147 17.0816C16.3091 17.2021 16.6392 17.2021 16.9336 17.0816C17.0844 17.0279 17.2229 16.9449 17.3412 16.8373C17.4595 16.7298 17.5552 16.6 17.6227 16.4554L18.3723 14.7693C18.9974 14.992 19.6353 15.1769 20.2826 15.3233C20.605 15.3955 20.9314 15.4558 21.2619 15.5039C21.5369 15.5627 21.7827 15.7151 21.957 15.9349C22.1313 16.1547 22.2233 16.4282 22.217 16.7083L22.2412 20.4657Z" fill="#F5F5FA"/>
</svg>
