<svg width="14" height="17" viewBox="0 0 14 17" fill="none" xmlns="http://www.w3.org/2000/svg">
<path d="M0.5 4.33333H13.5M5.375 7.66667V12.6667M8.625 7.66667V12.6667M1.3125 4.33333L2.125 14.3333C2.125 14.7754 2.2962 15.1993 2.60095 15.5118C2.9057 15.8244 3.31902 16 3.75 16H10.25C10.681 16 11.0943 15.8244 11.399 15.5118C11.7038 15.1993 11.875 14.7754 11.875 14.3333L12.6875 4.33333M4.5625 4.33333V1.83333C4.5625 1.61232 4.6481 1.40036 4.80048 1.24408C4.95285 1.0878 5.15951 1 5.375 1H8.625C8.84049 1 9.04715 1.0878 9.19952 1.24408C9.3519 1.40036 9.4375 1.61232 9.4375 1.83333V4.33333" stroke="white" stroke-linecap="round" stroke-linejoin="round"/>
</svg>
